<?xml version="1.0" encoding="UTF-8"?>
<svg version="1.1" xmlns="http://www.w3.org/2000/svg" width="600" height="600">
<path d="M0 0 C198 0 396 0 600 0 C600 198 600 396 600 600 C402 600 204 600 0 600 C0 402 0 204 0 0 Z " fill="#FEFEFE" transform="translate(0,0)"/>
<path d="M0 0 C0.88969644 -0.00623996 1.77939287 -0.01247993 2.69604981 -0.01890898 C5.67167124 -0.03483964 8.64647359 -0.02223423 11.62210083 -0.00964355 C13.75776649 -0.01506471 15.89342841 -0.02218732 18.02908325 -0.03088379 C23.82669409 -0.04912293 29.62402027 -0.04204643 35.4216361 -0.02936745 C41.49042878 -0.01924031 47.55919709 -0.02863258 53.62799072 -0.03491211 C63.82170994 -0.04219044 74.01531327 -0.03259703 84.20901489 -0.0135498 C95.98903162 0.00820753 107.76877129 0.00117645 119.54878128 -0.02085543 C129.66531584 -0.03901799 139.78176708 -0.04156317 149.89831269 -0.03110075 C155.93926223 -0.02486908 161.98008165 -0.02402112 168.0210228 -0.0372467 C173.70266914 -0.04881651 179.3839591 -0.04075838 185.06556702 -0.01766968 C187.14885492 -0.01238818 189.23217289 -0.01388675 191.31544876 -0.02272034 C194.16350122 -0.03368164 197.01041797 -0.01990475 199.85839844 0 C200.67922972 -0.00892289 201.50006099 -0.01784577 202.34576595 -0.02703905 C208.00737719 0.04949745 212.31620491 1.35645856 217.05618286 4.50793457 C221.90544359 9.57009669 221.62770694 14.63783639 221.55227661 21.26965332 C221.55373184 22.29726273 221.55518707 23.32487213 221.5566864 24.38362122 C221.55503119 26.54789069 221.5435124 28.7121724 221.5227356 30.87634277 C221.49368841 34.1948005 221.50215339 37.51166902 221.51516724 40.8302002 C221.50893233 42.93502569 221.50054334 45.03984613 221.48977661 47.14465332 C221.49271225 48.13841476 221.49564789 49.13217621 221.49867249 50.15605164 C221.48598831 51.07743423 221.47330414 51.99881683 221.4602356 52.94812012 C221.45483261 53.758311 221.44942963 54.56850189 221.44386292 55.40324402 C220.96137341 58.02264907 220.15893798 58.91508457 218.05618286 60.50793457 C215.49368286 60.88293457 215.49368286 60.88293457 213.05618286 60.50793457 C211.05618286 57.50793457 211.05618286 57.50793457 211.05618286 50.50793457 C138.45618286 50.50793457 65.85618286 50.50793457 -8.94381714 50.50793457 C-8.61381714 106.27793457 -8.28381714 162.04793457 -7.94381714 219.50793457 C0.63618286 219.83793457 9.21618286 220.16793457 18.05618286 220.50793457 C19.04618286 221.49793457 20.03618286 222.48793457 21.05618286 223.50793457 C20.86868286 226.63293457 20.86868286 226.63293457 20.05618286 229.50793457 C15.63187443 231.72008878 9.66436775 230.78267666 4.80618286 230.82043457 C3.5777063 230.84943848 2.34922974 230.87844238 1.08352661 230.9083252 C-10.39570284 230.98916484 -10.39570284 230.98916484 -14.94381714 226.50793457 C-19.00484084 221.50973579 -19.5209742 218.02597456 -19.45175171 211.85437012 C-19.46111165 210.56671139 -19.46111165 210.56671139 -19.47066069 209.25303936 C-19.48658562 206.38329601 -19.47398841 203.51440262 -19.46139526 200.64465332 C-19.4668166 198.58455918 -19.47393932 196.52446891 -19.4826355 194.46438599 C-19.50087029 188.87351093 -19.49380054 183.28293115 -19.48111916 177.69205093 C-19.47099238 171.84120131 -19.48038395 165.99037698 -19.48666382 160.13952637 C-19.49394114 150.31404074 -19.48435022 140.48867538 -19.46530151 130.66320801 C-19.44353269 119.30349559 -19.450584 107.94407035 -19.47260714 96.58436489 C-19.49075864 86.83133963 -19.49332065 77.07840081 -19.48285246 67.32536411 C-19.47661619 61.50021724 -19.47578568 55.67520534 -19.48899841 49.85006714 C-19.50055255 44.37361584 -19.49253883 38.8975348 -19.46942139 33.4211235 C-19.46413201 31.4111734 -19.46565196 29.40119214 -19.47447205 27.39125443 C-19.48540195 24.64758186 -19.47169481 21.90509596 -19.45175171 19.16149902 C-19.4606746 18.36596965 -19.46959748 17.57044027 -19.47879076 16.75080395 C-19.40566534 11.56479557 -18.44985632 8.56144028 -14.94381714 4.50793457 C-10.04305454 0.24049375 -6.20024206 -0.06703568 0 0 Z " fill="#434244" transform="translate(168.94381713867188,159.4920654296875)"/>
<path d="M0 0 C7.22136706 3.75406807 12.39014124 8.55204608 15.125 16.3125 C16.8198146 28.46400091 11.91464447 37.0922971 5.875 47.1875 C4.60739487 49.33293286 3.34049148 51.47878046 2.07421875 53.625 C1.42114746 54.7284375 0.76807617 55.831875 0.09521484 56.96875 C-3.07771033 62.35367976 -6.19515204 67.77026749 -9.3125 73.1875 C-10.5715648 75.37242452 -11.83067963 77.55732021 -13.08984375 79.7421875 C-14.02739502 81.36979004 -14.02739502 81.36979004 -14.98388672 83.03027344 C-18.73528024 89.54121257 -22.49190994 96.04913194 -26.24755859 102.55761719 C-31.9032785 112.35842879 -31.9032785 112.35842879 -37.54638672 122.16650391 C-38.80580735 124.34488212 -40.07697903 126.51650919 -41.35986328 128.68115234 C-44.45738649 133.93382007 -47.30737539 139.13683856 -49.76953125 144.71875 C-58.45139181 163.39113393 -72.09142355 169.93143198 -90.50024414 177.22460938 C-93.6099976 178.22707349 -95.66304253 178.82018632 -98.875 178.3125 C-101.26648712 176.72500461 -101.78543149 175.7221706 -102.39916992 172.91503906 C-102.46724854 171.97885742 -102.53532715 171.04267578 -102.60546875 170.078125 C-102.68700195 169.03664307 -102.76853516 167.99516113 -102.85253906 166.92211914 C-102.92182617 165.81344482 -102.99111328 164.70477051 -103.0625 163.5625 C-103.17223145 161.85984985 -103.17223145 161.85984985 -103.28417969 160.12280273 C-103.42391423 157.86531709 -103.55704146 155.60741139 -103.68310547 153.34912109 C-103.83977999 150.86983648 -104.06434497 148.42382436 -104.34765625 145.95703125 C-105.16723663 135.37174668 -100.88253534 128.5276408 -95.45361328 119.85986328 C-93.20007644 116.22339508 -91.0685217 112.51956847 -88.92651367 108.81665039 C-87.15392936 105.75450664 -85.36751584 102.70078667 -83.578125 99.6484375 C-77.93019818 89.99914876 -72.35990376 80.30501288 -66.77929688 70.61669922 C-64.85993338 67.28635748 -62.93817647 63.95740852 -61.015625 60.62890625 C-59.73955439 58.41928755 -58.46351249 56.20965227 -57.1875 54 C-56.56617188 52.92419678 -55.94484375 51.84839355 -55.3046875 50.73999023 C-51.83870525 44.73347591 -48.39220986 38.71647095 -44.96630859 32.68701172 C-43.03965646 29.30075599 -41.1027576 25.92051194 -39.15917969 22.54394531 C-38.33689708 21.11511203 -37.51700753 19.68489723 -36.70019531 18.25292969 C-32.90820807 11.63633328 -29.35641516 5.60235752 -22.875 1.3125 C-21.5446875 0.384375 -21.5446875 0.384375 -20.1875 -0.5625 C-13.53751625 -2.82098505 -6.50676951 -2.70840152 0 0 Z " fill="#444445" transform="translate(434.875,191.6875)"/>
<path d="M0 0 C1.23281708 0.01003825 1.23281708 0.01003825 2.49053955 0.02027929 C3.36486633 0.01559932 4.23919312 0.01091934 5.14001465 0.00609756 C8.08122755 -0.00590593 11.02197912 0.00362566 13.9631958 0.01304662 C16.0671211 0.0089833 18.17104427 0.00364277 20.27496338 -0.00288355 C25.99799809 -0.0165914 31.72087105 -0.01124418 37.44390869 -0.0017463 C43.4243006 0.00583234 49.40467837 -0.0011903 55.3850708 -0.00590479 C65.42936701 -0.01136759 75.47359712 -0.00415698 85.5178833 0.01011693 C97.14168597 0.02644441 108.7653308 0.02115628 120.38912964 0.00463772 C130.35689651 -0.00896222 140.32461577 -0.01090412 150.29238892 -0.00304627 C156.25104358 0.00163845 162.20962399 0.00223316 168.16827393 -0.00765574 C173.7693727 -0.01630141 179.37026734 -0.01034743 184.97134399 0.00702703 C187.0309312 0.01100472 189.09053549 0.00983604 191.15011597 0.00323904 C193.95392914 -0.00491596 196.7570814 0.00527166 199.56085205 0.02027929 C200.3827301 0.01358712 201.20460815 0.00689496 202.0513916 0 C207.68324511 0.05877953 207.68324511 0.05877953 211.0256958 3.40123022 C211.0256958 12.31123022 211.0256958 21.22123022 211.0256958 30.40123022 C138.4256958 30.40123022 65.8256958 30.40123022 -8.9743042 30.40123022 C-8.9743042 21.49123022 -8.9743042 12.58123022 -8.9743042 3.40123022 C-5.61964286 0.04656888 -4.5391798 0.04737532 0 0 Z " fill="#FCFCFC" transform="translate(168.97430419921875,169.5987697839737)"/>
<path d="M0 0 C1.34575973 -0.00378634 2.69151555 -0.00928899 4.03726196 -0.01637268 C7.67972065 -0.03029976 11.32170556 -0.0191791 14.96413779 -0.00266147 C18.77840764 0.01121305 22.59265066 0.00472655 26.40693665 0.00120544 C32.80831522 -0.00149381 39.20950596 0.01195762 45.61083984 0.03515625 C53.01366047 0.0617984 60.41616779 0.06350129 67.81901997 0.05176789 C74.94283669 0.04099558 82.06653997 0.04717062 89.19034767 0.06132317 C92.22180675 0.06708433 95.25318286 0.06699938 98.28464317 0.06225777 C101.8511395 0.05749127 105.41729182 0.06757552 108.98372269 0.08921242 C110.91895655 0.09744444 112.85423545 0.09092439 114.78947449 0.08401489 C115.93766663 0.09391953 117.08585876 0.10382416 118.2688446 0.11402893 C119.76843483 0.11767377 119.76843483 0.11767377 121.29831982 0.12139225 C123.7902832 0.50170898 123.7902832 0.50170898 125.64709187 1.83062649 C126.7902832 3.50170898 126.7902832 3.50170898 126.6027832 6.62670898 C126.3346582 7.57545898 126.0665332 8.52420898 125.7902832 9.50170898 C123.19447227 10.79961445 121.29471837 10.64118316 118.38668823 10.65992737 C117.23961395 10.66971619 116.09253967 10.679505 114.91070557 10.68959045 C113.01394073 10.69822365 113.01394073 10.69822365 111.07885742 10.70703125 C109.73867489 10.71660772 108.39849539 10.72661766 107.05831909 10.73703003 C103.41394504 10.76411028 99.76955799 10.78510291 96.12513876 10.80503201 C92.31876338 10.82687235 88.51242819 10.85427058 84.70608521 10.88108826 C77.49548284 10.93104159 70.28485819 10.9759706 63.07421219 11.01911062 C53.3324049 11.07768306 43.59065043 11.14398409 33.8488903 11.2098608 C18.49605685 11.31347679 3.14317821 11.40673846 -12.2097168 11.50170898 C-12.2097168 47.14170898 -12.2097168 82.78170898 -12.2097168 119.50170898 C10.97622185 119.63261939 10.97622185 119.63261939 34.16235352 119.70947266 C38.65112305 119.75036621 38.65112305 119.75036621 40.75384521 119.77583313 C42.21944988 119.78889433 43.68516191 119.79217145 45.15081787 119.78767395 C47.37428142 119.78276418 49.59542546 119.80909169 51.81860352 119.84228516 C53.07102844 119.84894699 54.32345337 119.85560883 55.61383057 119.86247253 C58.7902832 120.50170898 58.7902832 120.50170898 61.12304688 122.86026001 C62.92541499 125.71580204 64.51761841 128.58451961 66.0246582 131.60717773 C66.88510742 133.32904297 66.88510742 133.32904297 67.76293945 135.08569336 C68.05442871 135.67697021 68.34591797 136.26824707 68.64624023 136.87744141 C69.54469904 138.69815763 70.45387187 140.51322656 71.36450195 142.32788086 C75.7902832 151.23464018 75.7902832 151.23464018 75.7902832 153.50170898 C76.4502832 153.50170898 77.1102832 153.50170898 77.7902832 153.50170898 C77.92370117 152.50010742 77.92370117 152.50010742 78.05981445 151.47827148 C78.99723876 147.65839276 80.68576301 144.35045214 82.4777832 140.87670898 C82.83501465 140.17537842 83.19224609 139.47404785 83.56030273 138.75146484 C84.62860377 136.66376891 85.7074186 134.58188226 86.7902832 132.50170898 C87.38196289 131.36088867 87.97364258 130.22006836 88.58325195 129.04467773 C92.51363289 121.64003414 92.51363289 121.64003414 94.7902832 120.50170898 C96.96467463 120.3911315 99.14244547 120.34516487 101.31958008 120.328125 C101.98965591 120.32143799 102.65973175 120.31475098 103.35011292 120.30786133 C104.80643388 120.29380371 106.26277698 120.28191192 107.71913147 120.27191353 C110.02186139 120.25552393 112.32442669 120.23228853 114.6270752 120.20701599 C121.17439605 120.13617341 127.72178316 120.07603085 134.26928711 120.02490234 C138.2722553 119.99316363 142.27503297 119.9519045 146.27784729 119.90470695 C147.80567509 119.88865942 149.33354679 119.87635061 150.86143494 119.86779976 C152.99481636 119.85568581 155.12774715 119.83155477 157.26098633 119.8046875 C158.47629028 119.79438004 159.69159424 119.78407257 160.94372559 119.77345276 C163.92255905 119.79390569 163.92255905 119.79390569 165.7902832 117.50170898 C166.10142572 114.93410766 166.10142572 114.93410766 166.06152344 111.90625 C166.07171005 110.73485977 166.08189667 109.56346954 166.09239197 108.35658264 C166.09453201 107.0857634 166.09667206 105.81494415 166.09887695 104.50561523 C166.11759278 102.52020666 166.13632533 100.53479808 166.15606022 98.54939938 C166.20152785 93.64159197 166.22505961 88.73364529 166.24658203 83.82568359 C166.25937584 81.07424945 166.28004602 78.32307468 166.30885315 75.57176208 C166.33520865 72.97653427 166.348991 70.38114349 166.34922791 67.78578186 C166.36256668 66.61123947 166.37590546 65.43669708 166.38964844 64.2265625 C166.39471909 63.19112808 166.39978973 62.15569366 166.40501404 61.08888245 C166.7902832 58.50170898 166.7902832 58.50170898 168.15516663 56.63218689 C169.7902832 55.50170898 169.7902832 55.50170898 172.3527832 55.68920898 C174.7902832 56.50170898 174.7902832 56.50170898 176.7902832 58.50170898 C177.06443787 61.00418091 177.06443787 61.00418091 177.09667969 64.20141602 C177.11266708 65.39670929 177.12865448 66.59200256 177.14512634 67.82351685 C177.15048904 69.12239838 177.15585175 70.42127991 177.16137695 71.75952148 C177.17034531 73.10513407 177.1794672 74.45074565 177.18873596 75.7963562 C177.20524548 78.62264425 177.2129286 81.44881365 177.21582031 84.27514648 C177.22118201 87.87992967 177.25875862 91.48358031 177.30456448 95.08804512 C177.33446878 97.87122546 177.34154685 100.65413872 177.34254646 103.43746567 C177.34875139 105.40716239 177.37816961 107.37674232 177.4080658 109.34622192 C177.37255678 116.44019905 177.04484156 122.2926693 171.7902832 127.50170898 C167.84310386 130.44370717 164.950108 130.88815131 160.07226562 130.93408203 C159.41804626 130.94427368 158.7638269 130.95446533 158.08978271 130.96496582 C155.94168427 130.99499979 153.79403243 131.00434649 151.64575195 131.01342773 C150.15072662 131.03028165 148.65571539 131.04843285 147.16072083 131.06782532 C143.23662729 131.11525455 139.31259097 131.1451094 135.38830566 131.17126465 C131.37960513 131.20110609 127.37110159 131.24762405 123.36254883 131.29272461 C115.5052239 131.3786771 107.6478809 131.44605791 99.7902832 131.50170898 C99.2461377 132.64760498 98.70199219 133.79350098 98.14135742 134.97412109 C96.11737453 139.22113152 94.06433589 143.45353082 92.00219727 147.68212891 C91.11366063 149.5145329 90.23306051 151.3508074 89.3605957 153.19091797 C88.10522461 155.83504334 86.82198946 158.46394575 85.5324707 161.09155273 C85.14783661 161.91759506 84.76320251 162.74363739 84.36691284 163.5947113 C81.56826393 169.1981291 81.56826393 169.1981291 77.68139648 170.71484375 C74.7902832 170.50170898 74.7902832 170.50170898 73.1003418 169.41601562 C71.43945814 166.98907027 70.128857 164.51289578 68.8293457 161.87280273 C68.27504883 160.75454102 67.72075195 159.6362793 67.1496582 158.48413086 C66.57731445 157.31430664 66.0049707 156.14448242 65.4152832 154.93920898 C64.85067383 153.79645508 64.28606445 152.65370117 63.7043457 151.47631836 C62.6346597 149.31094705 61.56745867 147.14434494 60.50366211 144.97607422 C58.28417508 140.47543017 56.03786602 135.9883735 53.7902832 131.50170898 C52.96644638 131.50028397 52.14260956 131.49885895 51.29380798 131.49739075 C43.51082946 131.47952412 35.72851007 131.43780312 27.94582272 131.36961842 C23.94508886 131.33540013 19.94473475 131.31024658 15.94384766 131.30615234 C12.07906343 131.30185813 8.21513509 131.27330429 4.35061836 131.22827721 C2.87996986 131.21533772 1.40921875 131.21098195 -0.06147957 131.21555519 C-13.01065956 131.24642914 -13.01065956 131.24642914 -17.48095703 128.33251953 C-23.32619546 122.26867954 -23.65036191 116.94292262 -23.61376953 108.90991211 C-23.62406441 107.32834572 -23.62406441 107.32834572 -23.63456726 105.71482849 C-23.652835 102.23740082 -23.64899802 98.76042424 -23.64331055 95.28295898 C-23.64787197 92.86209974 -23.65317742 90.4412418 -23.65919495 88.02038574 C-23.66812574 82.94981623 -23.6657027 77.87940423 -23.65576172 72.80883789 C-23.64426552 66.3120638 -23.66449432 59.8158327 -23.69367886 53.31912994 C-23.71202575 48.32111155 -23.71175147 43.32322367 -23.70604134 38.32518005 C-23.70588797 35.92979673 -23.71194457 33.53440464 -23.72433281 31.13905334 C-23.73921379 27.79019083 -23.72858632 24.44233686 -23.71142578 21.09350586 C-23.72109375 20.10527328 -23.73076172 19.11704071 -23.74072266 18.09886169 C-23.67971538 12.41187794 -23.18582359 8.89240075 -19.2097168 4.50170898 C-13.66166056 -0.86155754 -7.25903106 -0.0559308 0 0 Z " fill="#434345" transform="translate(223.209716796875,269.498291015625)"/>
<path d="M0 0 C4.15492421 2.33918961 6.22556731 4.94845108 7.75 9.4375 C8.6733503 16.07471339 7.30682487 20.38934123 3.6875 25.875 C2.76084159 27.36322862 1.83651454 28.85291048 0.9140625 30.34375 C0.15270996 31.55804688 0.15270996 31.55804688 -0.62402344 32.796875 C-3.67718692 37.75528585 -6.54278366 42.82305313 -9.4375 47.875 C-10.73261492 50.12396173 -12.02819385 52.3726563 -13.32421875 54.62109375 C-13.97438965 55.75015137 -14.62456055 56.87920898 -15.29443359 58.04248047 C-19.06552773 64.5894012 -22.84271076 71.13281065 -26.61938477 77.67651367 C-29.77319079 83.14171293 -32.92434329 88.60841028 -36.0703125 94.078125 C-39.17757073 99.47927092 -42.29413184 104.87495098 -45.41699219 110.26708984 C-46.65523778 112.40878634 -47.89018314 114.55239379 -49.12207031 116.69775391 C-50.90629007 119.80346133 -52.70179077 122.90237719 -54.5 126 C-55.03705566 126.94069336 -55.57411133 127.88138672 -56.12744141 128.85058594 C-56.62679199 129.70555664 -57.12614258 130.56052734 -57.640625 131.44140625 C-58.07407227 132.19236572 -58.50751953 132.9433252 -58.95410156 133.71704102 C-60.25 135.4375 -60.25 135.4375 -63.25 136.4375 C-63.8275 135.57125 -64.405 134.705 -65 133.8125 C-70.2788433 127.44772322 -79.36207555 124.2302101 -87.25 122.4375 C-83.40617889 114.53213629 -79.29454049 106.87247501 -74.8125 99.3125 C-73.57104034 97.20085833 -72.33017518 95.08886706 -71.08984375 92.9765625 C-70.45546387 91.89793945 -69.82108398 90.81931641 -69.16748047 89.70800781 C-66.04501332 84.38224134 -62.95834846 79.03598312 -59.875 73.6875 C-59.25641113 72.615 -58.63782227 71.5425 -58.00048828 70.4375 C-54.05424349 63.58825884 -50.12810139 56.72777358 -46.21191406 49.86132812 C-42.89741129 44.04987065 -39.57559156 38.24261958 -36.25 32.4375 C-35.60015137 31.30280273 -34.95030273 30.16810547 -34.28076172 28.99902344 C-32.40167198 25.72491639 -30.51470924 22.4554869 -28.625 19.1875 C-28.0693335 18.21796387 -27.51366699 17.24842773 -26.94116211 16.24951172 C-13.98003337 -6.07714137 -13.98003337 -6.07714137 0 0 Z " fill="#FCFCFC" transform="translate(432.25,201.5625)"/>
<path d="M0 0 C0.87486053 -0.00708481 1.74972107 -0.01416962 2.65109253 -0.02146912 C3.60807037 -0.0189917 4.56504822 -0.01651428 5.55102539 -0.01396179 C7.0660112 -0.02162819 7.0660112 -0.02162819 8.61160278 -0.02944946 C11.95735564 -0.04337437 15.30290321 -0.04238666 18.64868164 -0.04008484 C20.96891355 -0.04396983 23.28914474 -0.04830409 25.609375 -0.05307007 C30.47503972 -0.06053828 35.34063189 -0.06023638 40.20629883 -0.05497742 C46.45113943 -0.04917839 52.69568386 -0.06612156 58.94047546 -0.08932209 C63.73248032 -0.10403014 68.52441334 -0.10493519 73.31643677 -0.10181236 C75.61940091 -0.10232693 77.92236894 -0.1075899 80.22531128 -0.11762428 C83.44085129 -0.12991615 86.65580772 -0.12324075 89.87133789 -0.11161804 C90.82831573 -0.11926178 91.78529358 -0.12690552 92.77127075 -0.13478088 C93.64613129 -0.12776657 94.52099182 -0.12075226 95.42236328 -0.11352539 C96.18263321 -0.11369313 96.94290314 -0.11386087 97.72621155 -0.1140337 C100.26477092 0.36520508 101.18114737 1.20837022 102.71118164 3.26069641 C102.4666504 6.60262333 102.10574607 7.86613199 99.71118164 10.26069641 C97.83084869 10.51237869 97.83084869 10.51237869 95.4979248 10.5146637 C94.17290703 10.52312317 94.17290703 10.52312317 92.82112122 10.53175354 C91.84962631 10.52770508 90.87813141 10.52365662 89.87719727 10.51948547 C88.85599289 10.52299011 87.83478851 10.52649475 86.78263855 10.53010559 C83.39416787 10.53893556 80.00590458 10.53306924 76.61743164 10.52632141 C74.27095499 10.5276677 71.92447862 10.52960792 69.57800293 10.53211975 C64.65508372 10.53507273 59.73223698 10.53076775 54.80932617 10.5214386 C48.48706545 10.51004402 42.16497452 10.51660256 35.84272003 10.52858353 C30.99585685 10.5357974 26.14903418 10.53351637 21.3021698 10.52832794 C18.97047404 10.52699014 16.63877465 10.5286437 14.30708313 10.53328705 C11.05301111 10.5383445 7.79921723 10.53065295 4.54516602 10.51948547 C3.57367111 10.52353394 2.60217621 10.5275824 1.60124207 10.53175354 C0.71789688 10.52611389 -0.1654483 10.52047424 -1.07556152 10.5146637 C-1.84542641 10.51390965 -2.61529129 10.51315559 -3.40848541 10.51237869 C-5.28881836 10.26069641 -5.28881836 10.26069641 -7.28881836 8.26069641 C-7.60131836 5.26069641 -7.60131836 5.26069641 -7.28881836 2.26069641 C-4.1839035 0.19075317 -3.51737341 0.00949756 0 0 Z " fill="#434344" transform="translate(227.288818359375,289.7393035888672)"/>
<path d="M0 0 C0.87486053 -0.00708481 1.74972107 -0.01416962 2.65109253 -0.02146912 C3.60807037 -0.0189917 4.56504822 -0.01651428 5.55102539 -0.01396179 C7.0660112 -0.02162819 7.0660112 -0.02162819 8.61160278 -0.02944946 C11.95735564 -0.04337437 15.30290321 -0.04238666 18.64868164 -0.04008484 C20.96891355 -0.04396983 23.28914474 -0.04830409 25.609375 -0.05307007 C30.47503972 -0.06053828 35.34063189 -0.06023638 40.20629883 -0.05497742 C46.45113943 -0.04917839 52.69568386 -0.06612156 58.94047546 -0.08932209 C63.73248032 -0.10403014 68.52441334 -0.10493519 73.31643677 -0.10181236 C75.61940091 -0.10232693 77.92236894 -0.1075899 80.22531128 -0.11762428 C83.44085129 -0.12991615 86.65580772 -0.12324075 89.87133789 -0.11161804 C90.82831573 -0.11926178 91.78529358 -0.12690552 92.77127075 -0.13478088 C93.64613129 -0.12776657 94.52099182 -0.12075226 95.42236328 -0.11352539 C96.18263321 -0.11369313 96.94290314 -0.11386087 97.72621155 -0.1140337 C100.27911801 0.36791357 101.19114613 1.17798817 102.71118164 3.26069641 C102.52368164 6.38569641 102.52368164 6.38569641 101.71118164 9.26069641 C99.40945136 10.41156155 98.10294353 10.3911328 95.5426178 10.40113831 C94.23238899 10.40970352 94.23238899 10.40970352 92.89569092 10.41844177 C91.45483124 10.42011856 91.45483124 10.42011856 89.98486328 10.42182922 C88.47009651 10.42927658 88.47009651 10.42927658 86.92472839 10.43687439 C83.57359138 10.45151761 80.22250168 10.45830105 76.87133789 10.46382141 C74.54967751 10.46957037 72.22801715 10.47532813 69.90635681 10.48109436 C65.03473692 10.49161002 60.16313356 10.49744922 55.29150391 10.50093079 C49.0388075 10.50642158 42.7863282 10.53045988 36.53369999 10.55890274 C31.7374151 10.57749306 26.94118292 10.58273276 22.14486504 10.58426666 C19.83910368 10.58730107 17.53334342 10.59535592 15.22761726 10.60845184 C12.0072064 10.62543949 8.78733157 10.62365002 5.56689453 10.61714172 C4.60834564 10.62635651 3.64979675 10.63557129 2.66220093 10.64506531 C1.78589523 10.63949615 0.90958954 10.633927 0.00672913 10.62818909 C-1.13562399 10.63038893 -1.13562399 10.63038893 -2.30105495 10.63263321 C-4.84427583 10.15676298 -5.73093562 9.29306008 -7.28881836 7.26069641 C-7.66381836 4.69819641 -7.66381836 4.69819641 -7.28881836 2.26069641 C-4.1839035 0.19075317 -3.51737341 0.00949756 0 0 Z " fill="#434344" transform="translate(227.288818359375,369.7393035888672)"/>
<path d="M0 0 C1.31022881 -0.00856522 1.31022881 -0.00856522 2.64692688 -0.01730347 C3.6075 -0.01842133 4.56807312 -0.01953918 5.55775452 -0.02069092 C7.07252129 -0.02813828 7.07252129 -0.02813828 8.6178894 -0.03573608 C11.96902642 -0.0503793 15.32011612 -0.05716274 18.67127991 -0.06268311 C20.99294029 -0.06843207 23.31460065 -0.07418983 25.63626099 -0.07995605 C30.50788088 -0.09047171 35.37948424 -0.09631092 40.25111389 -0.09979248 C46.5038103 -0.10528328 52.7562896 -0.12932158 59.00891781 -0.15776443 C63.8052027 -0.17635476 68.60143488 -0.18159445 73.39775276 -0.18312836 C75.70351412 -0.18616276 78.00927437 -0.19421761 80.31500053 -0.20731354 C83.5354114 -0.22430119 86.75528622 -0.22251172 89.97572327 -0.21600342 C90.93427216 -0.2252182 91.89282104 -0.23443298 92.88041687 -0.243927 C93.75672256 -0.23835785 94.63302826 -0.2327887 95.53588867 -0.22705078 C96.67824179 -0.22925062 96.67824179 -0.22925062 97.84367275 -0.2314949 C100.3857181 0.24415537 101.30042781 1.08557319 102.83143616 3.14044189 C102.58690492 6.48236882 102.22600058 7.74587747 99.83143616 10.14044189 C97.95110321 10.39491749 97.95110321 10.39491749 95.61817932 10.40113831 C94.29316154 10.41176552 94.29316154 10.41176552 92.94137573 10.42260742 C91.96988083 10.42013 90.99838593 10.41765259 89.99745178 10.4151001 C88.97624741 10.42021103 87.95504303 10.42532196 86.90289307 10.43058777 C83.51443179 10.44453147 80.12617278 10.44352355 76.73768616 10.44122314 C74.39120914 10.44510715 72.04473283 10.4494412 69.69825745 10.45420837 C64.77534203 10.46168066 59.85249831 10.46137178 54.92958069 10.45611572 C48.607265 10.45031665 42.28524184 10.46725802 35.96297455 10.4904604 C31.11610689 10.50515962 26.26931032 10.5060747 21.42242432 10.50295067 C19.09072286 10.5034657 16.75901761 10.50873723 14.42733765 10.51876259 C11.17316924 10.53103727 7.91957901 10.52438952 4.66542053 10.51275635 C3.69392563 10.52040009 2.72243073 10.52804382 1.72149658 10.53591919 C0.8381514 10.52890488 -0.04519379 10.52189056 -0.95530701 10.5146637 C-2.11010433 10.51491531 -2.11010433 10.51491531 -3.2882309 10.515172 C-3.90874077 10.39151107 -4.52925064 10.26785013 -5.16856384 10.14044189 C-7.16856384 7.14044189 -7.16856384 7.14044189 -6.91856384 4.01544189 C-6.54731384 2.59231689 -6.54731384 2.59231689 -6.16856384 1.14044189 C-3.86683356 -0.01042324 -2.56032573 0.0100055 0 0 Z " fill="#434344" transform="translate(227.16856384277344,309.85955810546875)"/>
<path d="M0 0 C0.87641647 0.00247742 1.75283295 0.00495483 2.6558075 0.00750732 C3.57786987 0.00239639 4.49993225 -0.00271454 5.44993591 -0.00798035 C8.50894089 -0.02192165 11.56772172 -0.02091616 14.62675476 -0.01861572 C16.74663375 -0.02250019 18.86651197 -0.02683434 20.98638916 -0.03160095 C25.43432638 -0.03907296 29.88218424 -0.03876481 34.3301239 -0.0335083 C40.03804379 -0.02771274 45.74563929 -0.04464216 51.45350552 -0.06785297 C55.83289498 -0.08256489 60.21220588 -0.08346548 64.59161568 -0.08034325 C66.69641322 -0.08085775 68.80121501 -0.08611957 70.90598869 -0.09615517 C73.84624858 -0.10845284 76.78587079 -0.10176799 79.72612 -0.09014893 C81.03770836 -0.10161453 81.03770836 -0.10161453 82.37579346 -0.11331177 C88.30065961 -0.06140071 88.30065961 -0.06140071 90.5144968 1.61024189 C91.75566101 3.28216553 91.75566101 3.28216553 91.56816101 6.40716553 C91.30003601 7.35591553 91.03191101 8.30466553 90.75566101 9.28216553 C87.3803117 10.96984018 83.55240053 10.42934559 79.83964539 10.4274292 C78.45414238 10.43246712 78.45414238 10.43246712 77.04064941 10.43760681 C73.97688973 10.44713279 70.91318459 10.44906064 67.84941101 10.45013428 C65.72713701 10.45334531 63.60486324 10.45670926 61.48258972 10.46022034 C57.03047675 10.46621545 52.5783832 10.4680598 48.12626648 10.46746826 C42.40935493 10.46736652 36.69256727 10.48102898 30.97568512 10.49824047 C26.59206058 10.50933408 22.20846625 10.5113883 17.8248291 10.51085854 C15.71641614 10.51204225 13.60800249 10.51648578 11.49960327 10.5241909 C8.55687154 10.53393928 5.61441234 10.53113343 2.67167664 10.52508545 C1.79368912 10.53070496 0.9157016 10.53632446 0.0111084 10.54211426 C-6.01602266 10.51048185 -6.01602266 10.51048185 -8.24433899 8.28216553 C-8.49433899 5.28216553 -8.49433899 5.28216553 -8.24433899 2.28216553 C-5.58863283 -0.37354063 -3.61318925 0.03208835 0 0 Z " fill="#434345" transform="translate(228.2443389892578,349.71783447265625)"/>
<path d="M0 0 C0.91245483 -0.00511093 1.82490967 -0.01022186 2.76501465 -0.01548767 C5.78611784 -0.02940674 8.80699353 -0.02842533 11.828125 -0.02612305 C13.92415451 -0.03000835 16.02018324 -0.03434267 18.11621094 -0.03910828 C22.51109367 -0.04657521 26.90589607 -0.04627551 31.30078125 -0.04101562 C36.9402926 -0.03521659 42.579476 -0.0521603 48.21893311 -0.0753603 C52.54770845 -0.09007114 56.87640429 -0.09097302 61.2052002 -0.08785057 C63.28487803 -0.08836499 65.36456019 -0.09362528 67.44421387 -0.10366249 C70.34844471 -0.11595993 73.25202997 -0.10927582 76.15625 -0.09765625 C77.01972046 -0.10529999 77.88319092 -0.11294373 78.77282715 -0.12081909 C84.62383576 -0.06891594 84.62383576 -0.06891594 86.83416748 1.60273457 C88.078125 3.2746582 88.078125 3.2746582 87.890625 6.3996582 C87.6225 7.3484082 87.354375 8.2971582 87.078125 9.2746582 C83.70298254 10.96222943 79.87508212 10.43106364 76.16210938 10.43579102 C75.2384407 10.44075592 74.31477203 10.44572083 73.3631134 10.45083618 C70.29935978 10.4654744 67.23565789 10.47226161 64.171875 10.4777832 C62.04960121 10.48353208 59.92732745 10.48928985 57.80505371 10.49505615 C53.35294349 10.50557005 48.90085136 10.51141057 44.44873047 10.51489258 C38.73176615 10.52038643 33.01503891 10.54443187 27.29814911 10.57286453 C22.91452322 10.59144439 18.53095504 10.59669396 14.14729309 10.59822845 C12.03887125 10.60126468 9.93045066 10.60932557 7.82206726 10.62241364 C4.87923868 10.6393815 1.93699764 10.63761699 -1.00585938 10.63110352 C-1.88384689 10.6403183 -2.76183441 10.64953308 -3.66642761 10.6590271 C-6.08825684 10.64215088 -6.08825684 10.64215088 -9.921875 10.2746582 C-12.0606011 7.06656905 -12.39918462 5.99767323 -11.921875 2.2746582 C-7.97359165 -0.3575307 -4.58252737 -0.01314791 0 0 Z " fill="#444345" transform="translate(231.921875,329.725341796875)"/>
<path d="M0 0 C9.70321539 1.07813504 13.56810497 2.03211372 20 9 C20.66 9.66 21.32 10.32 22 11 C22 11.99 22 12.98 22 14 C18.87797994 15.50626117 15.75191601 17.00393243 12.625 18.5 C11.73554688 18.92925781 10.84609375 19.35851562 9.9296875 19.80078125 C8.65351563 20.40986328 8.65351563 20.40986328 7.3515625 21.03125 C6.56604004 21.40830078 5.78051758 21.78535156 4.97119141 22.17382812 C3 23 3 23 1 23 C0.67 15.41 0.34 7.82 0 0 Z " fill="#F8F8F8" transform="translate(341,334)"/>
<path d="M0 0 C1.2375 -0.01675781 2.475 -0.03351563 3.75 -0.05078125 C7 0.3125 7 0.3125 8.94921875 1.671875 C10 3.3125 10 3.3125 9.8125 5.875 C9 8.3125 9 8.3125 7 10.3125 C4.45151644 10.53753811 2.04736331 10.63690357 -0.5 10.625 C-1.18964844 10.64111328 -1.87929688 10.65722656 -2.58984375 10.67382812 C-4.59375 10.67578125 -4.59375 10.67578125 -8 10.3125 C-10.1387261 7.10441085 -10.47730962 6.03551503 -10 2.3125 C-6.33236683 -0.13258878 -4.36568225 0.01364276 0 0 Z " fill="#464646" transform="translate(360,179.6875)"/>
<path d="M0 0 C1.2375 -0.01675781 2.475 -0.03351563 3.75 -0.05078125 C7 0.3125 7 0.3125 8.94921875 1.671875 C10 3.3125 10 3.3125 9.8125 5.875 C9 8.3125 9 8.3125 7 10.3125 C4.45151644 10.53753811 2.04736331 10.63690357 -0.5 10.625 C-1.18964844 10.64111328 -1.87929688 10.65722656 -2.58984375 10.67382812 C-4.59375 10.67578125 -4.59375 10.67578125 -8 10.3125 C-10.1387261 7.10441085 -10.47730962 6.03551503 -10 2.3125 C-6.33236683 -0.13258878 -4.36568225 0.01364276 0 0 Z " fill="#454546" transform="translate(330,179.6875)"/>
<path d="M0 0 C1.2375 -0.01675781 2.475 -0.03351563 3.75 -0.05078125 C7 0.3125 7 0.3125 8.94921875 1.671875 C10 3.3125 10 3.3125 9.8125 5.875 C9 8.3125 9 8.3125 7 10.3125 C4.45151644 10.53753811 2.04736331 10.63690357 -0.5 10.625 C-1.18964844 10.64111328 -1.87929688 10.65722656 -2.58984375 10.67382812 C-4.59375 10.67578125 -4.59375 10.67578125 -8 10.3125 C-10.1387261 7.10441085 -10.47730962 6.03551503 -10 2.3125 C-6.33236683 -0.13258878 -4.36568225 0.01364276 0 0 Z " fill="#454546" transform="translate(300,179.6875)"/>
</svg>
